<svg xmlns="http://www.w3.org/2000/svg" width="470.309" height="522.934" viewBox="0 0 470.309 522.934">
  <g id="Grupo_1114" data-name="Grupo 1114" transform="translate(-181.393 -87.533)">
    <path id="Caminho_1" data-name="Caminho 1" d="M418.161,267.827a34.656,34.656,0,0,0,.882,6.12l-237.65,4.811V247.006l238.292,2.566a35.859,35.859,0,0,0-1.2,6.067c-.254,2.031-.4,4.049-.454,6.08a58.372,58.372,0,0,0,.134,6.108Z" transform="translate(0 62.95)" fill="#636060"/>
    <path id="Caminho_2" data-name="Caminho 2" d="M375.837,247.006v22.13l-24.054,4.811a37.186,37.186,0,0,0,1.2-6.067c.24-2.031.4-4.049.454-6.08s0-4.076-.147-6.107a35.947,35.947,0,0,0-.869-6.12Z" transform="translate(67.259 62.95)" fill="#636060"/>
    <path id="Caminho_3" data-name="Caminho 3" d="M210.954,87.867l.78,44.689c.266,14.783.485,29.422.626,44s.272,29.1.125,43.589-.429,29.024-.676,43.633l-.841-.957q12.716,1.9,25.456,3.623l12.743,1.7,12.757,1.588c8.5,1.062,17.007,2.134,25.526,3.087L313,275.737,311.556,277c-.225-12.167-.335-24.334-.464-36.5l-.249-36.5c-.073-12.167-.169-24.334-.15-36.5-.041-12.167.068-24.334.117-36.5l1.232,1.862-25-10.969c-8.34-3.7-16.686-7.347-25.072-11.144Zm-.221-.334,50.976,20.418c8.611,3.419,17.264,6.987,25.921,10.5l25.991,10.68,1.227.5.006,1.358c.049,12.167.158,24.334.117,36.5.019,12.167-.077,24.334-.15,36.5l-.25,36.5c-.129,12.167-.239,24.334-.464,36.5l-.027,1.47-1.413-.2L287.22,274.58c-8.479-1.252-16.974-2.385-25.468-3.528l-12.74-1.719-12.754-1.61Q223.5,266.15,210.72,264.73l-.826-.091-.014-.866c-.247-14.737-.526-29.548-.676-44.4s-.006-29.676.125-44.448.361-29.479.627-44.042Z" transform="translate(10.953)" fill="#636060"/>
    <path id="Caminho_4" data-name="Caminho 4" d="M221.4,102.139V235.877l75.048,12.508V134.853Z" transform="translate(15.792 5.766)" fill="#636060"/>
    <path id="Caminho_5" data-name="Caminho 5" d="M256.3,215.588c5.159,0,5.168-8.018,0-8.018S251.13,215.588,256.3,215.588Z" transform="translate(28.039 47.383)" fill="#636060"/>
    <path id="Caminho_6" data-name="Caminho 6" d="M236.872,217.284c.553,3.693.842,7.387,1.039,11.08.213,3.693.27,7.387.3,11.08l-.07,5.54a24.4,24.4,0,0,0,.007,2.638,23.965,23.965,0,0,0,.361,2.574,20.664,20.664,0,0,0,4.9,9.44,16.183,16.183,0,0,1-6.912-8.9,18.681,18.681,0,0,1-.886-5.757l-.07-5.54c.027-3.693.084-7.387.3-11.08C236.03,224.671,236.32,220.977,236.872,217.284Z" transform="translate(21.373 51.217)" fill="#636060"/>
    <path id="Caminho_7" data-name="Caminho 7" d="M253.614,219.406c.321,3.767.38,7.511.346,11.247.008,1.87-.08,3.734-.122,5.6-.024.933-.088,1.864-.13,2.8l-.071,1.4-.032.694.028.618a17.382,17.382,0,0,0,3.455,9.649,19.947,19.947,0,0,0,1.74,2,20.509,20.509,0,0,0,2.088,1.753c1.449,1.18,2.907,2.356,4.3,3.636-1.723-.786-3.384-1.675-5.053-2.561a20.173,20.173,0,0,1-2.477-1.5,17.521,17.521,0,0,1-2.2-1.989,17.2,17.2,0,0,1-4.527-10.9l-.013-.784.047-.706.1-1.4c.073-.934.125-1.87.216-2.8.188-1.867.33-3.736.569-5.6C252.311,226.83,252.831,223.106,253.614,219.406Z" transform="translate(27.457 52.055)" fill="#636060"/>
    <rect id="Retângulo_4" data-name="Retângulo 4" width="8.018" height="273.201" transform="translate(194.056 337.266)" fill="#636060"/>
    <rect id="Retângulo_5" data-name="Retângulo 5" width="8.018" height="273.201" transform="translate(314.645 337.266)" fill="#636060"/>
    <rect id="Retângulo_6" data-name="Retângulo 6" width="8.018" height="273.201" transform="translate(396.747 337.266)" fill="#636060"/>
    <path id="Caminho_8" data-name="Caminho 8" d="M407.235,116.511c.237,2.4.333,4.81.352,7.229,0,1.209-.023,2.422-.114,3.643a15.715,15.715,0,0,1-.6,3.766,68.631,68.631,0,0,0-2.594,6.552,3.241,3.241,0,0,0,.214,2.516,4.222,4.222,0,0,0,2.3,1.325l.409.123.192.233a55.378,55.378,0,0,1,3.814,5.29,26.451,26.451,0,0,1,1.607,2.888,8.94,8.94,0,0,1,.6,1.622,11.92,11.92,0,0,0,.429,1.483c1.415,3.85,4.436,7.43,8.433,8.487a8.717,8.717,0,0,0,1.5.276l.754.079c.253.006.507-.009.76-.012l1.62-.019a7.509,7.509,0,0,1,1.724.143,10.473,10.473,0,0,1,6.016,3.336,15.832,15.832,0,0,1,3.457,5.922,15.083,15.083,0,0,1,.658,6.958l-.981-1.581a32.725,32.725,0,0,0,4.447.543,42.808,42.808,0,0,0,4.587-.075,35.594,35.594,0,0,0,4.562-.6l2.258-.482,2.222-.647c.748-.2,1.452-.523,2.186-.774a17.616,17.616,0,0,0,2.151-.885l2.126-.972,2.046-1.145c1.411-.7,2.619-1.718,3.973-2.545,1.3-.9,2.488-1.95,3.784-2.9l.189.189c-1.081,1.177-2.155,2.387-3.325,3.5-.6.539-1.208,1.074-1.829,1.6a17.975,17.975,0,0,1-1.926,1.486,36.219,36.219,0,0,1-8.571,4.731,35.509,35.509,0,0,1-9.613,2.262,29.649,29.649,0,0,1-9.989-.642l-1.218-.305.237-1.277a14.193,14.193,0,0,0-3.043-10.918,9.292,9.292,0,0,0-4.748-3.187,6.085,6.085,0,0,0-1.445-.263l-.742-.064-.841-.053c-.281-.021-.562-.03-.841-.061l-.831-.157a9.859,9.859,0,0,1-1.621-.444,13.651,13.651,0,0,1-5.465-3.655,20.246,20.246,0,0,1-3.606-5.461c-.217-.5-.424-1.043-.6-1.549a7.806,7.806,0,0,0-.656-1.321,25.383,25.383,0,0,0-1.79-2.542c-1.29-1.649-2.74-3.213-4.144-4.752l.6.355a5.927,5.927,0,0,1-3.772-2.2,3.342,3.342,0,0,1-.547-1.11,3.982,3.982,0,0,1-.217-1.166,7.411,7.411,0,0,1,.238-2.128,44.455,44.455,0,0,1,2.952-6.695,16.519,16.519,0,0,0,.77-3.278c.173-1.162.34-2.34.475-3.524.291-2.368.519-4.756.778-7.148Z" transform="translate(86.983 11.439)" fill="#636060"/>
    <path id="Caminho_9" data-name="Caminho 9" d="M407.572,124.674l-.942-.947a13.169,13.169,0,0,1,11.864-3.221l-.318,1.3A12.016,12.016,0,0,0,407.572,124.674Z" transform="translate(88.909 12.89)" fill="#636060"/>
    <path id="Caminho_10" data-name="Caminho 10" d="M411.079,128.626a2.006,2.006,0,1,0-1.938-2A2.006,2.006,0,0,0,411.079,128.626Z" transform="translate(89.901 14.638)" fill="#636060"/>
    <path id="Caminho_11" data-name="Caminho 11" d="M406.967,135.877v-1.336c.484,0,.613-.18.655-.239a2.521,2.521,0,0,0-.007-1.768l1.268-.423a3.722,3.722,0,0,1-.177,2.973,2.013,2.013,0,0,1-1.74.793Z" transform="translate(89.042 17.597)" fill="#636060"/>
    <path id="Caminho_12" data-name="Caminho 12" d="M404.093,121.113s16.036,12.172,30.147,9.694c0,0,7.056-9.725,8.98-1.692s2.245,17.815-3.849,16.212c0,0-4.971,18.281,3.368,32.392s15.715,9.3,17.319,22.129,47.145,12.829,34.637-6.735-17-42.655-17-42.976-8.98-42.655-17.96-47.466S408.1,93.693,404.093,121.113Z" transform="translate(87.908 4.591)" fill="#636060"/>
    <path id="Caminho_13" data-name="Caminho 13" d="M427.046,187.462s-15.074-11.546-13.791-21.809-3.528-23.733-3.528-23.733c.8,3.047,4.811,11.065,13.149,10.744s12.508,9.621,11.385,15.394Z" transform="translate(90.132 21.469)" fill="#636060"/>
    <path id="Caminho_14" data-name="Caminho 14" d="M470.105,173.14a54.769,54.769,0,0,1,7.879,12.386,99.163,99.163,0,0,1,5.253,13.774,176.984,176.984,0,0,1,5.808,28.843,296.729,296.729,0,0,1,1.119,58.631l-.012.133-.072.08a14.191,14.191,0,0,1-7.013,3.937,14.955,14.955,0,0,0,6.457-4.4l-.084.212c0-9.745-.2-19.491-.681-29.209-.455-9.72-1.2-19.419-2.335-29.064a226.757,226.757,0,0,0-5.112-28.623,121.413,121.413,0,0,0-4.451-13.819,61.4,61.4,0,0,0-6.756-12.879Z" transform="translate(113.965 33.792)" fill="#636060"/>
    <path id="Caminho_15" data-name="Caminho 15" d="M414.361,237.8c-.908-3.274-1.731-6.56-2.4-9.908a31.009,31.009,0,0,1-.626-10.4,141.618,141.618,0,0,1,6.105-19.551c2.4-6.348,4.921-12.639,7.629-18.854s5.518-12.384,8.63-18.423c-2.084,6.465-4.364,12.842-6.693,19.2l-7.064,19.014c-1.207,3.155-2.357,6.326-3.5,9.495-1.114,3.159-2.273,6.365-3.065,9.517a33.374,33.374,0,0,0-.122,9.816C413.553,231.056,414.031,234.416,414.361,237.8Z" transform="translate(90.694 28.868)" fill="#636060"/>
    <path id="Caminho_16" data-name="Caminho 16" d="M416.788,250.448l-1.331-.1c.145-1.834.252-3.654.317-5.411l1.336.05C417.043,246.759,416.936,248.6,416.788,250.448Z" transform="translate(92.394 62.131)" fill="#636060"/>
    <path id="Caminho_17" data-name="Caminho 17" d="M447.837,164.374a23.889,23.889,0,0,0-5.68,4.085c-.883.76-1.642,1.66-2.463,2.478-.742.9-1.5,1.78-2.222,2.693-.67.954-1.369,1.883-2.012,2.85l-1.832,2.97c-1.066,2.073-2.224,4.093-3.091,6.266-.989,2.113-1.737,4.331-2.56,6.52-.461,1.077-.73,2.224-1.1,3.337l-1.1,3.35c-.576,2.28-1.2,4.555-1.748,6.853-.459,2.316-.9,4.641-1.3,6.975l-.153-.4a68.306,68.306,0,0,0,10.31,7.29,70.484,70.484,0,0,0,11.418,5.3,49.759,49.759,0,0,0,12.058,2.843,31.472,31.472,0,0,0,6.095.013,27.192,27.192,0,0,0,5.871-1.3l1.2.135a.709.709,0,0,0-.508-.133c-.132,0-.258.105-.27.1s-.025.031-.025.031a.228.228,0,0,1,.028-.057.519.519,0,0,0,.094-.188,5.559,5.559,0,0,0,.345-1.376,22.684,22.684,0,0,0,.183-3.4c0-2.342-.164-4.717-.395-7.12l-.182-1.812-.042-.453a5.339,5.339,0,0,1-.006-.591c.01-.342.036-.669.067-1a21.767,21.767,0,0,1,.749-3.782,26.921,26.921,0,0,1,3.159-6.864l-.116.284c.8-2.882,1.588-5.785,2.316-8.694l1.1-4.366c.344-1.46.682-2.922.964-4.4l.266.03c-.062,1.512-.231,3.015-.418,4.513s-.381,3-.637,4.482c-.495,2.977-1.029,5.939-1.616,8.9l-.023.116-.093.168a26.1,26.1,0,0,0-2.549,6.448,19.3,19.3,0,0,0-.521,3.361c-.014.277-.024.554-.02.818a2.911,2.911,0,0,0,.014.317l.061.449.227,1.8a69.81,69.81,0,0,1,.561,7.373,25.256,25.256,0,0,1-.23,3.848,8.085,8.085,0,0,1-.577,2.124,2.782,2.782,0,0,1-.334.608l-.23.316a3.308,3.308,0,0,1-.361.335,2.157,2.157,0,0,1-2.463.206l1.2.135a29.906,29.906,0,0,1-6.552,1.267,34.056,34.056,0,0,1-6.6-.2,38.346,38.346,0,0,1-6.386-1.363,46.215,46.215,0,0,1-6.078-2.229,81.037,81.037,0,0,1-11.249-6.165,119.276,119.276,0,0,1-10.393-7.441l-.186-.151.033-.247c.315-2.361.592-4.73.849-7.108.364-2.361.812-4.713,1.221-7.079.579-2.327,1.091-4.682,1.843-6.97a59.317,59.317,0,0,1,2.645-6.732A48.46,48.46,0,0,1,436.1,172.5c.8-.906,1.663-1.768,2.518-2.622a34.155,34.155,0,0,1,2.79-2.326,21.323,21.323,0,0,1,6.346-3.434Z" transform="translate(94.897 30.232)" fill="#636060"/>
    <path id="Caminho_18" data-name="Caminho 18" d="M415.934,248.85s64.451,20.205,88.518,12.187" transform="translate(92.582 63.678)" fill="none"/>
    <path id="Caminho_19" data-name="Caminho 19" d="M380.439,354.2c10.156,19.938,21.595,39.127,33.595,57.956-19.617,12.936-31.217,8.272-31.217,8.272-1.911-6.414-49.377-85.952-48.749-114.175s114.175-57.408,114.175-57.408,35.372,11.091,63.5,13.577a39.728,39.728,0,0,1-16.625,27.608,49.6,49.6,0,0,1-7.1,4.169,56.356,56.356,0,0,1-7.711,2.9,74.285,74.285,0,0,1-16.25,2.806c-1.376.067-2.753.2-4.129.2l-4.143.04c-2.766-.094-5.519-.147-8.325-.294-5.586-.254-11.185-.4-16.784-.347a165.793,165.793,0,0,0-33.541,3.073,56.644,56.644,0,0,0-16.022,5.907,25.865,25.865,0,0,0-6.762,5.559,19.363,19.363,0,0,0-2.459,3.728,17.861,17.861,0,0,0-1.456,4.236,19.152,19.152,0,0,0-.374,4.437,19.716,19.716,0,0,0,.641,4.383,69.938,69.938,0,0,0,2.7,8.085C375.5,344.152,377.914,349.2,380.439,354.2Z" transform="translate(60.264 63.676)" fill="#636060"/>
    <path id="Caminho_20" data-name="Caminho 20" d="M459.985,318.36c-35.118,0-51.475,3.848-63.021,2.405s-10.25,3.207-10.25,3.207c0,13.47,38.9,64.785,38.9,64.785a118.406,118.406,0,0,1-22.45,19.951c-5.532-9.688-11.051-19.39-16.357-29.2-5.345-9.782-10.584-19.631-15.394-29.666-2.392-5.025-4.69-10.089-6.722-15.221a67.941,67.941,0,0,1-2.552-7.791,17.8,17.8,0,0,1-.534-3.889,16.35,16.35,0,0,1,.347-3.875c1.029-5.145,4.958-9.194,9.6-11.827a54.491,54.491,0,0,1,15.3-5.505,163.817,163.817,0,0,1,32.98-3.26c5.559-.08,11.118.026,16.677.24,2.766.107,5.6.174,8.405.214l4.223-.134c1.416-.027,2.819-.2,4.223-.294a76.479,76.479,0,0,0,16.6-3.247,56.139,56.139,0,0,0,7.858-3.167,47.65,47.65,0,0,0,7.216-4.463,39.707,39.707,0,0,0,15.849-28.651c9.835.868,18.775.681,25.016-1.39h.013C532.655,315.153,495.1,318.36,459.985,318.36Z" transform="translate(71.134 67.125)" fill="#636060"/>
    <path id="Caminho_21" data-name="Caminho 21" d="M465.56,200.462c-.773,1.553-1.5,3.134-2.315,4.671-.857,1.512-1.643,3.069-2.576,4.539a96.777,96.777,0,0,1-5.831,8.68,92.89,92.89,0,0,1-6.851,7.936,61.1,61.1,0,0,1-7.934,6.993l-.171.123-.257.029q-16.637,1.876-33.3,3.5c-2.778.281-5.563.485-8.352.7l-4.193.289-2.124.1-1.172-.009-1-.054c-5.513-.137-11.12-.2-16.688-.272l-16.734-.163c-1.372,0-2.841-.062-4.138-.009a19,19,0,0,0-3.9.987c-2.6.928-5.169,2.013-7.727,3.113l-3.845,1.656c-.646.272-1.293.541-1.96.791l-.518.177c-.15.063-.468.1-.616.139a4.81,4.81,0,0,0-.668.421,55.269,55.269,0,0,0-5.947,5.77c-1.883,2.043-3.724,4.138-5.418,6.32a17.366,17.366,0,0,0-1.167,1.661c-.348.532-.539,1.177-.292,1.439.2.329.89.5,1.514.535a8.958,8.958,0,0,0,1.968-.093l.392-.062.176.416a3.6,3.6,0,0,0,2.761,1.88,9.769,9.769,0,0,0,3.781-.176,20.523,20.523,0,0,0,7.147-3.1c1.1-.724,2.137-1.554,3.254-2.362A12.621,12.621,0,0,1,344.646,255a8.888,8.888,0,0,1,4.423-.11,37.511,37.511,0,0,1,3.99,1.16c5.1,1.757,10.175,3.4,15.394,3.567a26.2,26.2,0,0,0,7.633-.939,25.788,25.788,0,0,0,6.933-3.269l.408-.256.443.05c11.971,1.359,23.982,2.467,35.977,3.6,12,1.1,24.018,2.064,36.016,2.492,3,.1,6,.168,8.97.082,1.486-.04,2.965-.121,4.412-.279a10.425,10.425,0,0,0,3.919-1.036,24.423,24.423,0,0,0,6.191-5.939,86.929,86.929,0,0,0,5.148-7.31c3.218-5.057,6.1-10.346,8.88-15.686s5.427-10.756,7.918-16.253l.247.1a241.016,241.016,0,0,1-15.553,32.754,81.584,81.584,0,0,1-5.036,7.639,26.185,26.185,0,0,1-6.7,6.616c-.366.209-.77.383-1.157.57a12.429,12.429,0,0,1-1.21.385,21.614,21.614,0,0,1-2.359.445c-1.549.2-3.082.314-4.61.387-3.056.15-6.092.144-9.125.1-6.066-.067-12.1-.457-18.136-.848q-9.047-.613-18.07-1.425c-12.036-1.059-24.026-2.458-36.022-3.909l.851-.205a26.077,26.077,0,0,1-16.062,4.394,53.807,53.807,0,0,1-15.935-4.017c-2.526-.9-5-1.914-7.323-1.249-2.332.62-4.365,2.551-6.714,3.984a21.857,21.857,0,0,1-7.692,3.1,10.887,10.887,0,0,1-4.248.071,4.579,4.579,0,0,1-3.51-2.682l.567.354a11.01,11.01,0,0,1-2.2.07,2.9,2.9,0,0,1-2.237-.976,1.564,1.564,0,0,1-.263-.7,3.511,3.511,0,0,1,.053-.68,4.21,4.21,0,0,1,.485-1.079,18.11,18.11,0,0,1,1.25-1.75c1.748-2.208,3.615-4.29,5.532-6.33a71.876,71.876,0,0,1,6.057-5.87c.133-.115.311-.216.466-.323a1.738,1.738,0,0,1,.672-.28c.185-.057.222-.046.4-.107l.47-.168c.635-.248,1.273-.522,1.909-.8l3.818-1.7c2.551-1.136,5.113-2.259,7.753-3.239a20.39,20.39,0,0,1,4.161-1.174c1.485-.106,2.81-.08,4.226-.131l16.736-.371c5.589-.093,11.14-.26,16.782-.123l1.09.049.92-.007,2.054-.117,4.152-.328,8.322-.739c11.108-.941,22.214-2.015,33.319-3.049l-.427.151a59.757,59.757,0,0,0,7.848-6.521,91.448,91.448,0,0,0,6.97-7.6c2.148-2.689,4.273-5.415,6.15-8.316,1.927-2.868,3.66-5.863,5.356-8.886Z" transform="translate(54.24 44.53)" fill="#636060"/>
    <path id="Caminho_22" data-name="Caminho 22" d="M345.326,235.049l-6.614,1.087a11.767,11.767,0,0,0-5.749,3.043l-10.314,8.581-.829-1.048,10.728-8.057A15.411,15.411,0,0,1,335.4,236.8a11.556,11.556,0,0,1,3.256-.991Z" transform="translate(55.432 58.23)" fill="#636060"/>
    <path id="Caminho_23" data-name="Caminho 23" d="M519.663,206.009a27.315,27.315,0,0,1,9.739-4.84,53.149,53.149,0,0,1,10.713-2.084c1.811-.238,3.629-.255,5.448-.378q2.726-.042,5.456.013c1.812.105,3.633.15,5.443.306l2.711.269,1.356.141.678.07a4.08,4.08,0,0,1,.41.058l.4.088a11.979,11.979,0,0,1,8.784,8.008,20.55,20.55,0,0,1-.146,11.569,35.228,35.228,0,0,1-1.717,5.334l-.492,1.305-.591,1.248-1.193,2.489a51.437,51.437,0,0,1-2.642,4.812l-1.387,2.362c-.44.71-.885,1.486-1.316,2.248a155.954,155.954,0,0,0-9.127,19.259,163.5,163.5,0,0,0-6.647,20.365,176.539,176.539,0,0,0-3.85,21.105,158.434,158.434,0,0,1-3.649,21.341,57.639,57.639,0,0,1-9.126,19.918,55.1,55.1,0,0,1-16.547,14.611A87.9,87.9,0,0,1,492.051,364a150.29,150.29,0,0,1-21.427,4.124,267.46,267.46,0,0,1-43.3.893c-14.39-.791-28.7-2.372-42.9-4.588l.045-.4c14.336.9,28.653,1.7,42.957,1.853l5.361.083,5.358-.064,5.354-.079,5.345-.232q10.688-.44,21.268-1.712a170.42,170.42,0,0,0,20.839-3.909,83.981,83.981,0,0,0,19.548-7.611,54.462,54.462,0,0,0,15.893-13.268,58.049,58.049,0,0,0,9.546-18.6,97.032,97.032,0,0,0,2.6-10.337c.73-3.493,1.285-7.031,1.805-10.58,1.082-7.105,2.275-14.219,3.936-21.225,3.294-14.009,7.525-27.893,14.105-40.911.43-.812.853-1.606,1.335-2.436l1.272-2.318c.815-1.559,1.78-3.052,2.469-4.656l1.12-2.371.556-1.187.448-1.217.914-2.426a22.09,22.09,0,0,0,.713-2.457,17.266,17.266,0,0,0,.35-9.657,8.76,8.76,0,0,0-6.272-6.037l-.255-.067a1.846,1.846,0,0,0-.255-.042l-.658-.087L558.8,202.3l-2.634-.362c-1.757-.23-3.524-.35-5.288-.531-1.766-.115-3.535-.187-5.3-.253-1.765.017-3.543-.072-5.305.057a59.681,59.681,0,0,0-10.52,1.273,38.135,38.135,0,0,0-5.091,1.479,20.683,20.683,0,0,0-4.729,2.343Z" transform="translate(80.143 43.877)" fill="#636060"/>
    <path id="Caminho_24" data-name="Caminho 24" d="M381.822,356.638q18.711,1.48,37.448,1.692t37.377-1.2c6.211-.48,12.408-1.193,18.55-2.254a106.944,106.944,0,0,0,18.1-4.61,64.4,64.4,0,0,0,16.511-8.523,35.29,35.29,0,0,0,11.545-14.1l-.039.1c2.388-8.9,4.62-17.864,6.5-26.874.942-4.5,1.792-9.025,2.435-13.558l.426-3.4.308-3.4a57.2,57.2,0,0,1,1.048-7.033c.42-2.334,1.141-4.566,1.75-6.837.755-2.214,1.408-4.473,2.3-6.629,1.626-4.383,3.572-8.616,5.551-12.826a241.1,241.1,0,0,1,13.693-24.259l-.034.058a28.057,28.057,0,0,0,2.52-6.684,17.394,17.394,0,0,0,.312-7.068,10.692,10.692,0,0,0-3.36-6.093,17.253,17.253,0,0,0-6.383-3.393l.068-.258a16.861,16.861,0,0,1,6.81,3.071,11.69,11.69,0,0,1,4.043,6.42,18.7,18.7,0,0,1,.007,7.634,29.628,29.628,0,0,1-2.386,7.249l0,0-.032.054a261.456,261.456,0,0,0-12.858,24.4c-1.88,4.186-3.763,8.377-5.295,12.685-.419,1.065-.789,2.145-1.141,3.229l-1.082,3.245c-.589,2.192-1.3,4.365-1.7,6.586a63.214,63.214,0,0,0-1.07,6.657l-.37,3.5-.488,3.472c-.725,4.61-1.653,9.164-2.671,13.692q-3.111,13.574-7.312,26.827l-.021.066-.018.038a37.212,37.212,0,0,1-12.467,14.219,69.939,69.939,0,0,1-16.812,8.5,164.657,164.657,0,0,1-36.722,8.215,255.666,255.666,0,0,1-37.633,1.167,312.918,312.918,0,0,1-37.434-3.525Z" transform="translate(79.103 44.194)" fill="#636060"/>
    <path id="Caminho_25" data-name="Caminho 25" d="M447.809,389.8c-3.789-2.713-7.393-5.631-10.929-8.624s-6.983-6.084-10.387-9.222c-3.372-3.172-6.709-6.386-9.917-9.736a87.286,87.286,0,0,1-9.074-10.583c3.451,3.1,7.058,6,10.513,9.074,3.492,3.033,6.9,6.157,10.3,9.291,3.363,3.173,6.718,6.357,9.974,9.649S444.766,386.269,447.809,389.8Z" transform="translate(89.253 104.25)" fill="#636060"/>
    <path id="Caminho_26" data-name="Caminho 26" d="M390.214,367.335a33.323,33.323,0,0,1,7.45,10.042,16.14,16.14,0,0,1,1.655,6.369,21.409,21.409,0,0,1-1.278,6.425,83.451,83.451,0,0,1-5.065,11.394,91.549,91.549,0,0,1-6.474,10.578c1.441-3.888,3.017-7.683,4.587-11.465,1.532-3.792,3.134-7.557,4.421-11.36a20.407,20.407,0,0,0,1.286-5.581,15.938,15.938,0,0,0-1.055-5.574,59.63,59.63,0,0,0-5.527-10.828Z" transform="translate(80.964 110.448)" fill="#636060"/>
    <path id="Caminho_27" data-name="Caminho 27" d="M441.118,365.347C440.472,378.182,421,388.433,421,388.433c-26.542,40.09-28.622,24.7-28.622,24.7s-24.7,27.9-20.205,33.675,17.319,7.056,37.524-14.432,20.847-32.713,23.092-32.392,7.376,6.735,7.376,6.735l21.809-22.129s-17.633-15.423-20.852-19.743" transform="translate(75.091 109.464)" fill="#636060"/>
    <rect id="Retângulo_7" data-name="Retângulo 7" width="8.017" height="195.481" transform="matrix(0.999, -0.033, 0.033, 0.999, 516.697, 411.697)" fill="#636060"/>
    <path id="Caminho_28" data-name="Caminho 28" d="M496.854,458.87l-3.59-26.161a13.435,13.435,0,0,0-5.117-8.848l-62.919-48.693,3.27-4.228,62.919,48.693a18.755,18.755,0,0,1,7.142,12.349l3.59,26.163Z" transform="translate(96.25 111.871)" fill="#636060"/>
    <path id="Caminho_29" data-name="Caminho 29" d="M470.657,477.613l-1.99-37.534a13.5,13.5,0,0,0-2.579-7.251L424.917,376.42l4.317-3.15,41.171,56.409A18.81,18.81,0,0,1,474,439.8l1.99,37.534Z" transform="translate(96.128 112.791)" fill="#636060"/>
    <path id="Caminho_30" data-name="Caminho 30" d="M396.664,477.613l-5.337-.282,1.99-37.533a18.812,18.812,0,0,1,3.6-10.119l41.171-56.409,4.317,3.15-41.171,56.409a13.5,13.5,0,0,0-2.579,7.252Z" transform="translate(82.868 112.791)" fill="#636060"/>
    <path id="Caminho_31" data-name="Caminho 31" d="M324.132,205.461c-.695,1.965-1.483,3.889-2.272,5.813l-3.14,5.292-6.027,10.183h-2.325l.361-.6L317,215.55l3.14-5.305C321.445,208.642,322.742,207.025,324.132,205.461Z" transform="translate(50.911 46.551)" fill="#636060"/>
    <path id="Caminho_32" data-name="Caminho 32" d="M310.76,212.116l-.748,6.548-.922,8.085h-2.018l.949-8.312.735-6.548c.548-2.151,1.082-4.3,1.75-6.428C310.666,207.694,310.719,209.9,310.76,212.116Z" transform="translate(49.61 46.551)" fill="#636060"/>
    <path id="Caminho_33" data-name="Caminho 33" d="M304.607,226.749h1.27l-.708-4.958-.575-3.982-.882-6.254c-.6-2.031-1.189-4.076-1.9-6.094-.094,1.751-.12,3.488-.107,5.225v1.163l.254,1.724.655,4.517,1.243,8.659Z" transform="translate(47.491 46.551)" fill="#636060"/>
    <path id="Caminho_34" data-name="Caminho 34" d="M301.93,226.749h-2.018l-1.256-8.659-.9-6.241c-.014-2.125-.014-4.249.107-6.388.708,2.018,1.3,4.062,1.9,6.094l.882,6.254.855,5.96Z" transform="translate(45.932 46.551)" fill="#636060"/>
    <path id="Caminho_35" data-name="Caminho 35" d="M302.459,212.174v1.176l-.013,4.971v8.205h-2V212.174c.294-2.045.588-4.089,1-6.147.294,1.483.548,2.967.762,4.437C302.3,211.038,302.38,211.6,302.459,212.174Z" transform="translate(46.993 46.774)" fill="#636060"/>
    <path id="Caminho_36" data-name="Caminho 36" d="M307.314,212.931l-.695,6.107-.815,7.216h-2.018l.561-4.958.281-2.486.682-6.107c.521-2,1.042-4.009,1.684-5.987C307.18,208.788,307.247,210.859,307.314,212.931Z" transform="translate(48.313 47.046)" fill="#636060"/>
    <path id="Caminho_37" data-name="Caminho 37" d="M296.312,228.9v7.216c.348-.04.695-.067,1.042-.107l3.007-6.748C299.011,229.169,297.662,229.063,296.312,228.9Zm4.423.481L297.515,236c1.938-.2,3.889-.334,5.827-.414Zm.428-.067,2.753,5.933,2.191-5.733c-1.643-.026-3.3-.107-4.944-.2Zm5.639.775-2.258,5.452c1.43-.053,2.846-.08,4.276-.093Zm2.846-.521c-.695-.013-1.4-.027-2.1-.027l2.045,5.038,1.737-5.038c-.561.013-1.122.013-1.684.027Zm2.579,1.269-1.751,4.611c1.123.013,2.245.027,3.368.067-.561-1.563-1.1-3.114-1.617-4.677Zm.935-1.323c.575,1.59,1.123,3.18,1.657,4.77.722-1.644,1.43-3.274,2.165-4.9-1.269.067-2.539.107-3.822.134Zm4.57.615c-.668,1.817-1.363,3.621-2.058,5.439,1.537.053,3.073.147,4.6.281-.882-1.9-1.71-3.8-2.539-5.72Zm-21.421-9.408V228.9a114.177,114.177,0,0,1,13.336-.668c.815,0,1.631.013,2.446.027a.661.661,0,0,1,.361,0c1.711.027,3.408.094,5.1.187a.487.487,0,0,1,.133-.026.538.538,0,0,1,.2.04c1.7.107,3.394.24,5.091.441v-8.178Zm3.114,5.973a2.005,2.005,0,1,1,1.943-2,2.006,2.006,0,0,1-1.943,2Zm7.216,0a2.005,2.005,0,1,1,1.943-2,2.006,2.006,0,0,1-1.943,2Zm6.976-.24a2.005,2.005,0,1,1,1.953-2,2.006,2.006,0,0,1-1.953,2Zm6.855.24a2.005,2.005,0,1,1,1.943-2,2.006,2.006,0,0,1-1.943,2Zm-2.151,2.606c.748,2.178,1.47,4.356,2.138,6.562.842.08,1.684.147,2.525.254V228.9c-1.549.174-3.1.307-4.664.4Zm-17.586.08L297.515,236c1.938-.2,3.889-.334,5.826-.414Zm.428-.067,2.753,5.933,2.191-5.733c-1.643-.026-3.3-.107-4.944-.2Zm5.639.775-2.258,5.452c1.43-.053,2.846-.08,4.276-.093Zm2.846-.521c-.695-.013-1.4-.027-2.1-.027l2.045,5.038,1.737-5.038c-.561.013-1.122.013-1.684.027Zm2.579,1.269-1.751,4.611c1.123.013,2.245.027,3.368.067-.562-1.562-1.1-3.113-1.617-4.677Zm.935-1.323c.575,1.59,1.123,3.18,1.657,4.77.722-1.644,1.43-3.274,2.165-4.9-1.27.068-2.539.108-3.822.135Zm4.57.615c-.668,1.817-1.363,3.621-2.058,5.439,1.537.053,3.073.147,4.6.281-.882-1.9-1.71-3.795-2.539-5.719Zm-17-.748L297.515,236c1.938-.2,3.889-.334,5.826-.414Zm.428-.067,2.753,5.933,2.191-5.733c-1.643-.026-3.3-.107-4.944-.2Zm5.639.775-2.258,5.452c1.43-.053,2.846-.08,4.276-.093Zm2.846-.521c-.695-.013-1.4-.027-2.1-.027l2.045,5.038,1.737-5.038c-.561.013-1.122.013-1.684.027Zm2.579,1.269-1.751,4.611c1.123.013,2.245.027,3.368.067-.562-1.562-1.1-3.113-1.617-4.677Zm.935-1.323c.575,1.59,1.123,3.18,1.657,4.77.722-1.644,1.43-3.274,2.165-4.9-1.27.068-2.539.108-3.822.135Zm4.57.615c-.668,1.817-1.363,3.621-2.058,5.439,1.537.053,3.073.147,4.6.281-.882-1.9-1.71-3.795-2.539-5.719Zm-21.421,13.8v1.657a13.336,13.336,0,1,0,26.673,0v-1.657A133.429,133.429,0,0,1,296.312,243.937ZM315.1,236.68a.643.643,0,0,1-.588.067.823.823,0,0,1-.08-.053c-1.59.053-3.194.08-4.784.094a120.343,120.343,0,0,1-13.336-.668v7.817a133.436,133.436,0,0,1,26.673,0v-7.817c-2.632.307-5.251.467-7.884.56Zm-15.074,5.412a2.006,2.006,0,1,1,1.939-2,2.006,2.006,0,0,1-1.939,2Zm6.134-.12a2.006,2.006,0,1,1,1.925-2,2.006,2.006,0,0,1-1.925,2Zm6.735,0a2.006,2.006,0,1,1,1.925-2,2.006,2.006,0,0,1-1.925,2Zm6.735-.24a2.006,2.006,0,1,1,1.933-2,2.006,2.006,0,0,1-1.933,2Zm.641-5.88c-.882-1.9-1.711-3.795-2.539-5.719-.668,1.817-1.363,3.621-2.058,5.439,1.536.053,3.073.146,4.6.28Zm-3.287-6.468c-1.27.067-2.539.107-3.822.134.575,1.59,1.123,3.18,1.657,4.77.721-1.644,1.43-3.274,2.165-4.9Zm-3.14,6.133c-.561-1.563-1.1-3.113-1.617-4.677l-1.751,4.611c1.123.012,2.245.026,3.368.065Zm-2.512-5.973c-.561.013-1.123.013-1.684.027-.695-.013-1.4-.027-2.1-.027l2.045,5.038Zm-2.512,5.907-2.018-5.359-2.258,5.452c1.429-.054,2.846-.081,4.276-.093Zm-2.713-5.933c-1.644-.027-3.3-.107-4.944-.2l2.753,5.933Zm-5.372-.134L297.515,236c1.938-.2,3.889-.334,5.826-.414Zm17,.748c-.668,1.817-1.363,3.621-2.058,5.439,1.537.053,3.073.147,4.6.281-.882-1.9-1.71-3.8-2.539-5.72Zm-4.57-.615c.575,1.59,1.123,3.18,1.657,4.77.722-1.644,1.43-3.274,2.165-4.9-1.27.067-2.539.107-3.822.134Zm-.935,1.323-1.751,4.611c1.123.013,2.245.027,3.368.067-.562-1.563-1.1-3.114-1.617-4.678Zm-2.579-1.269c-.695-.013-1.4-.027-2.1-.027l2.045,5.038,1.737-5.038c-.561.013-1.122.013-1.684.026Zm-2.846.521-2.258,5.452c1.43-.053,2.846-.08,4.276-.093Zm-5.639-.775,2.753,5.933,2.191-5.733c-1.643-.027-3.3-.108-4.944-.2Zm-.428.067L297.515,236c1.938-.2,3.889-.334,5.826-.414Zm17,.748c-.668,1.817-1.363,3.621-2.058,5.439,1.537.053,3.073.147,4.6.281-.882-1.9-1.71-3.8-2.539-5.72Zm-4.57-.615c.575,1.59,1.123,3.18,1.657,4.77.722-1.644,1.43-3.274,2.165-4.9-1.27.067-2.539.107-3.822.134Zm-.935,1.323-1.751,4.611c1.123.013,2.245.027,3.368.067-.562-1.563-1.1-3.114-1.617-4.678Zm-2.579-1.269c-.695-.013-1.4-.027-2.1-.027l2.045,5.038,1.737-5.038c-.561.012-1.122.012-1.684.026Zm-2.846.521-2.258,5.452c1.43-.054,2.846-.08,4.276-.093Zm-5.639-.775,2.753,5.933,2.191-5.733c-1.643-.027-3.3-.108-4.944-.2Zm-.428.067L297.515,236c1.938-.2,3.889-.334,5.826-.414Z" transform="translate(45.363 52.575)" fill="#636060"/>
    <path id="Caminho_38" data-name="Caminho 38" d="M394.679,377.7a21.6,21.6,0,0,1,4.631.421,35.38,35.38,0,0,1,4.394,1.142,34.844,34.844,0,0,1,4.215,1.686,21.328,21.328,0,0,1,3.976,2.414,21.319,21.319,0,0,1-4.632-.418,34.781,34.781,0,0,1-4.393-1.145,35.433,35.433,0,0,1-4.214-1.69,21.592,21.592,0,0,1-3.977-2.411Z" transform="translate(84.192 114.537)" fill="#636060"/>
  </g>
</svg>
